<?xml version="1.0" encoding="UTF-8" standalone="no"?>
<!-- Created with Inkscape (http://www.inkscape.org/) -->

<svg
   width="436.7135mm"
   height="78.73764mm"
   viewBox="0 0 436.7135 78.73764"
   version="1.1"
   id="svg1"
   xmlSpace="preserve"
   inkscapeVersion="1.3 (0e150ed6c4, 2023-07-21)"
   sodipodiDocname="banner 2.svg"
   xmlnsInkscape="http://www.inkscape.org/namespaces/inkscape"
   xmlnsSodipodi="http://sodipodi.sourceforge.net/DTD/sodipodi-0.dtd"
   xmlns="http://www.w3.org/2000/svg"
   xmlnsSvg="http://www.w3.org/2000/svg"><sodipodiNamedview
     id="namedview1"
     pagecolor="#ffffff"
     bordercolor="#000000"
     borderopacity="0.25"
     inkscapeShowpageshadow="2"
     inkscapePageopacity="0.0"
     inkscapePagecheckerboard="0"
     inkscapeDeskcolor="#ffffff"
     inkscapeDocument-units="mm"
     inkscapeZoom="0.51090418"
     inkscapeCx="1596.1897"
     inkscapeCy="2001.3538"
     inkscapeWindow-width="2560"
     inkscapeWindow-height="1361"
     inkscapeWindow-x="-9"
     inkscapeWindow-y="-9"
     inkscapeWindow-maximized="1"
     inkscapeCurrent-layer="layer1"
     showguides="true" /><defs
     id="defs1" /><g
     inkscapeLabel="Livello 1"
     inkscapeGroupmode="layer"
     id="layer1"
     transform="translate(-194.98334,-522.50841)"><path
       style="fill:#e3ad6e;fill-opacity:1;stroke-width:2.42398"
       d="m 194.98333,601.22804 0.17386,-78.71961 h 436.53968 l -0.46594,78.71961 z"
       id="path4-6-2"
       sodipodiNodetypes="ccccc"
       inkscapeExport-filename="path4-6-2.svg"
       inkscapeExport-xdpi="96"
       inkscapeExport-ydpi="96" /><path
       style="fill:#eee8da;fill-opacity:1;stroke-width:1.57478"
       d="m 252.57642,540.63067 c 0,-0.54958 9.6961,-11.3458 10.74743,-11.96686 3.34557,-1.97626 7.18439,-1.26455 10.37588,1.92371 2.14238,2.14023 2.17538,2.15528 3.12494,1.42464 1.95161,-1.50167 5.13256,-0.71179 6.92167,1.71874 l 0.96207,1.30697 1.32957,-1.12116 c 1.87809,-1.58367 3.6819,-2.24486 6.1244,-2.24486 2.7709,0 4.89989,1.11938 7.15593,3.76241 1.62848,1.90783 1.92535,2.08476 3.13123,1.86615 1.77633,-0.32201 3.94803,0.63361 5.09248,2.24085 l 0.92364,1.29713 h -27.94462 c -15.36955,0 -27.94462,-0.0936 -27.94462,-0.20772 z"
       id="path8-1" /><path
       style="fill:#eee8da;fill-opacity:1;stroke-width:1.49267"
       d="m 480.44129,542.55442 c 0,-0.54958 8.71139,-11.3458 9.65595,-11.96686 3.0058,-1.97626 6.45476,-1.26455 9.32213,1.92371 1.92481,2.14023 1.95446,2.15528 2.80758,1.42464 1.75341,-1.50167 4.61131,-0.71179 6.21873,1.71874 l 0.86436,1.30697 1.19454,-1.12116 c 1.68736,-1.58367 3.30798,-2.24486 5.50243,-2.24486 2.48949,0 4.40226,1.11938 6.42919,3.76241 1.46309,1.90783 1.72981,2.08476 2.81323,1.86615 1.59593,-0.32201 3.54708,0.63361 4.5753,2.24085 l 0.82984,1.29713 h -25.10664 c -13.80866,0 -25.10664,-0.0936 -25.10664,-0.20772 z"
       id="path8-6-4" /><path
       style="fill:#eee8da;fill-opacity:1;stroke-width:1.57478"
       d="m 307.57559,558.18686 c 0,-0.47803 6.40379,-7.62785 7.39748,-8.25926 2.09827,-1.3333 3.72654,-0.97621 6.02385,1.3211 1.84687,1.84687 2.19496,2.02932 3.4752,1.82158 1.937,-0.31435 3.59666,0.45991 5.16247,2.40834 1.10801,1.37877 1.55821,1.63418 2.88063,1.63418 0.86205,0 1.93133,0.27527 2.37615,0.61175 0.7164,0.54184 -0.79777,0.61324 -13.2535,0.62497 -7.73425,0.008 -14.06228,-0.0658 -14.06228,-0.16266 z"
       id="path5-8-4" /><path
       style="fill:#eee8da;fill-opacity:1;stroke-width:1.79893"
       d="m 450.57923,554.65244 c 0,-0.54607 7.31529,-8.71358 8.45042,-9.43487 2.39693,-1.52308 4.25696,-1.11516 6.88127,1.50915 2.10975,2.10975 2.50738,2.31817 3.96985,2.08086 2.21271,-0.35909 4.1086,0.52537 5.89728,2.75113 1.26572,1.57503 1.78,1.86679 3.29065,1.86679 0.98476,0 2.20624,0.31445 2.71437,0.69883 0.81837,0.61896 -0.91132,0.70052 -15.13997,0.71392 -8.83513,0.009 -16.06387,-0.0751 -16.06387,-0.18581 z"
       id="path5-8-8-9" /><path
       style="fill:#eee8da;fill-opacity:1;stroke-width:1.00743"
       d="m 533.91402,542.76051 c 0,-0.32383 3.8686,-5.16747 4.4689,-5.59521 1.26759,-0.90324 2.25124,-0.66134 3.63907,0.89497 1.11572,1.25116 1.32601,1.37476 2.09941,1.23403 1.17016,-0.21296 2.17278,0.31156 3.11871,1.63152 0.66936,0.93404 0.94133,1.10707 1.74022,1.10707 0.52077,0 1.16674,0.18648 1.43546,0.41444 0.43278,0.36706 -0.48194,0.41543 -8.00659,0.42337 -4.67235,0.005 -8.49518,-0.0446 -8.49518,-0.11019 z"
       id="path5-8-8-8-3" /><path
       id="path3-7-93"
       style="fill:#b5d6ac;fill-opacity:1;stroke-width:1.13604"
       d="m 194.98333,535.37239 v 65.70814 l 436.2476,0.14751 0.23297,-39.3598 -22.35533,-24.38438 -26.82193,24.38438 c -4.65109,-5.70468 -11.43585,-14.56568 -13.58708,-16.88516 -0.78514,-0.84654 -2.75959,-1.17673 -4.25912,-0.0453 -19.72715,14.88434 -59.09033,34.29742 -62.17363,34.80128 -1.41213,-0.60416 -10.12693,-10.52306 -16.50241,-15.867 -0.82196,-0.68898 -1.9293,-0.87086 -3.04965,0.0276 -6.02811,4.83421 -10.99411,8.9778 -21.07502,17.61678 0,0 -17.34695,-16.93147 -35.01891,-29.58776 -0.87452,-0.62631 -3.23028,-0.66839 -4.10746,-0.0458 -11.11949,7.89224 -21.07152,19.71615 -23.90873,20.72769 -3.23376,-2.35959 -14.42122,-7.51514 -17.89886,-9.23307 -1.18921,-0.58746 -4.36739,-2.51616 -7.35909,-1.31846 -26.7877,10.72421 -40.8519,11.66681 -59.9713,16.96164 -13.14107,-7.09831 -24.17332,-14.61523 -35.05866,-22.42314 -0.94596,-0.67852 -3.42126,-0.787 -4.63749,-0.25476 -0.4039,0.17674 -2.98713,2.43427 -5.74031,5.01726 -2.75319,2.58299 -5.1213,4.69636 -5.26211,4.69636 -0.14082,0 -3.47357,-3.29745 -7.40632,-7.32772 -10.8959,-11.16612 -10.86552,-11.13803 -12.26827,-11.34194 -2.22496,-0.32342 -2.83825,0.10962 -8.84622,6.25233 -3.11888,3.18881 -5.67028,5.85608 -5.67028,5.92728 0,0.0617 -10.59365,7.8146 -10.59365,7.8146 l -6.91473,-13.60546 -7.89251,-9.19789 c -5.97626,-6.96494 -8.10149,-9.17585 -8.10149,-9.20517 z"
       sodipodiNodetypes="ccccccsscsscsscsscssssssssccccc" /><path
       style="fill:#6db28a;fill-opacity:1;stroke-width:1.13604"
       d="m 194.98333,601.22804 v -33.54979 c 0,0 3.52464,-3.1696 7.06127,-6.51658 9.70512,-9.18465 13.05253,-12.22533 13.65619,-12.40482 1.04749,-0.31145 3.05738,-0.14833 3.77068,0.30602 0.7614,0.485 -0.22609,-3.52829 22.8368,21.95454 8.06673,8.91315 17.41405,16.20369 17.53804,16.20119 0.12403,-0.002 2.91452,-2.61468 6.20117,-5.80487 3.28665,-3.19018 6.3287,-5.92658 6.76011,-6.08088 1.00547,-0.35962 1.34199,-0.36032 2.24215,-0.091 0.46323,0.1386 10.12665,11.7896 15.79311,16.44357 6.365,-5.6725 13.01434,-13.74051 21.6345,-23.25031 1.27105,-1.40222 2.48915,-0.61828 3.51702,0.12404 5.82754,4.2086 20.18655,16.72063 21.27887,15.88038 0,0 16.43814,-9.69887 19.65592,-12.48078 2.30372,-1.99167 6.00571,-2.37825 9.36082,-0.79443 12.63296,5.96357 33.86295,17.11012 43.54233,20.29892 0,0 14.97274,-2.01264 43.89741,-19.98725 1.65465,-1.02825 5.32402,-1.26178 7.46243,0.009 3.23892,1.92469 12.94193,8.20061 17.31592,11.00579 2.9086,1.86538 20.62685,11.12747 23.92212,9.86987 4.81181,-1.83636 11.9506,-10.93381 16.57998,-16.69565 5.86882,-7.30447 15.07655,-20.37129 17.68414,-23.97983 1.473,-2.03843 5.83971,-2.17254 7.53812,-0.31773 7.53002,8.22344 24.35243,28.76686 28.82386,33.34404 6.55505,-4.87791 11.10992,-9.22447 13.3945,-11.33223 0.9946,-0.91763 3.88157,-2.66888 5.53995,-0.31592 2.44313,3.4664 6.53711,8.48241 11.46679,13.92008 10.10474,-6.52122 19.60056,-12.98709 27.8121,-19.3362 l -0.0387,33.58089 h -354.10584 -1.85785 z"
       id="path2-7-5"
       sodipodiNodetypes="ccsssscssscsscsscssssssscsscccccc" /><g
       id="g10"
       style="fill:#4e866d;fill-opacity:1"><path
         style="fill:#4e866d;fill-opacity:1;stroke-width:1.13604"
         d="m 194.98333,575.71093 9.96471,9.85855 c 0,0 10.38791,8.9643 10.53971,9.00659 0.1518,0.0423 3.48139,-1.87594 7.39908,-5.55626 8.98146,-8.43725 8.61138,-8.14668 10.3756,-8.14668 0.77804,0 1.69363,0.1157 2.03466,0.25712 0.59214,0.24555 24.19089,20.09779 24.19089,20.09779 l -64.50465,0.018 z"
         id="path1-9-7"
         sodipodiNodetypes="ccssssccc" /><path
         style="fill:#4e866d;fill-opacity:1;stroke-width:1.13604"
         d="m 562.25284,592.6714 c 3.94674,-1.51054 6.87853,-3.00078 13.02911,-6.79035 0.80386,-0.49528 2.78539,-0.64937 3.3058,0.13846 1.84273,2.78962 7.82017,8.23993 9.38061,8.5567 0.73237,0.14868 2.67221,-1.74647 6.5899,-5.42679 8.98146,-8.43725 8.61138,-8.14668 10.3756,-8.14668 0.77804,0 1.69363,0.1157 2.03466,0.25712 0.41201,0.17085 24.32813,8.86569 24.32813,8.86569 l -0.0657,11.10249 -134.55695,0.018 c 0,0 25.34415,-5.08721 30.73227,-7.19571 6.08716,-2.38204 14.08447,-6.15408 22.19958,-10.03902 0.60899,-0.29154 1.96671,-0.77546 2.88959,0.15107 4.17962,4.19612 9.75744,8.50901 9.75744,8.50901 z"
         id="path1-9-0-4"
         sodipodiNodetypes="csssssscccssscc" /><path
         style="fill:#4e866d;fill-opacity:1;stroke-width:1.13604"
         d="m 310.4344,589.82296 c 5.10449,2.13985 9.58833,3.85895 14.30189,5.97451 2.40738,1.08049 12.84781,1.71408 12.99961,1.75637 0.1518,0.0423 9.14984,-1.82191 13.35461,-3.74371 4.19414,-1.91693 9.7766,-7.6288 11.54082,-7.6288 0.77804,0 1.69363,0.1157 2.03466,0.25712 0.59214,0.24555 20.50498,14.77159 20.50498,14.77159 l -91.7645,0.018 c 0,0 9.72014,-7.4429 14.01464,-10.89917 0.73855,-0.5944 2.13897,-0.87238 3.01329,-0.50586 z"
         id="path1-9-6-4"
         sodipodiNodetypes="sssassccsss" /><path
         style="fill:#4e866d;fill-opacity:1;stroke-width:1.13604"
         d="m 447.16244,589.95243 c 3.26522,2.08562 8.41571,4.8579 11.75528,6.3434 3.98735,1.77364 5.33718,2.41055 8.15924,3.1353 4.16012,1.06838 12.76654,1.74572 12.76654,1.74572 l -58.26792,-0.0174 c 9.80891,-4.17719 13.10009,-6.93031 19.8787,-11.10538 1.62034,-0.998 4.10438,-1.12604 5.70816,-0.10164 z"
         id="path1-9-6-3-6"
         sodipodiNodetypes="ssaccss" /></g></g></svg>
