<svg xmlns="http://www.w3.org/2000/svg" width="64" height="64" viewBox="0 0 64 64" fill="none">
    <path d="M50.6667 28.0001V16.0001C50.6667 13.0546 48.2789 10.6667 45.3333 10.6667H13.3333C10.3878 10.6667 8 13.0546 8 16.0001V36.8696C8 39.8152 10.3878 42.203 13.3333 42.203H17.5072V53.3334L28.6377 42.203H29.3333M43.1014 49.0436L50.058 56.0001V49.0436H50.6667C53.6122 49.0436 56 46.6557 56 43.7102V34.6667C56 31.7212 53.6122 29.3334 50.6667 29.3334H34.6667C31.7211 29.3334 29.3333 31.7212 29.3333 34.6667V43.7102C29.3333 46.6558 31.7211 49.0436 34.6667 49.0436H43.1014Z" stroke="black" stroke-width="2" stroke-linecap="round" stroke-linejoin="round"/>
</svg>