<svg xmlns="http://www.w3.org/2000/svg" width="65" height="66" viewBox="0 0 65 66" fill="none">
    <path d="M32.4999 32.9999C29.5208 32.9999 26.9704 31.9392 24.8489 29.8176C22.7274 27.6961 21.6666 25.1458 21.6666 22.1666C21.6666 19.1874 22.7274 16.6371 24.8489 14.5155C26.9704 12.394 29.5208 11.3333 32.4999 11.3333C35.4791 11.3333 38.0294 12.394 40.151 14.5155C42.2725 16.6371 43.3333 19.1874 43.3333 22.1666C43.3333 25.1458 42.2725 27.6961 40.151 29.8176C38.0294 31.9392 35.4791 32.9999 32.4999 32.9999ZM10.8333 54.6666V47.0833C10.8333 45.5485 11.2282 44.1379 12.0181 42.8515C12.8081 41.565 13.8576 40.5833 15.1666 39.9062C17.9652 38.5069 20.8089 37.4574 23.6978 36.7577C26.5867 36.0581 29.5208 35.7083 32.4999 35.7083C35.4791 35.7083 38.4131 36.0581 41.302 36.7577C44.1909 37.4574 47.0346 38.5069 49.8333 39.9062C51.1423 40.5833 52.1918 41.565 52.9817 42.8515C53.7716 44.1379 54.1666 45.5485 54.1666 47.0833V54.6666H10.8333ZM16.2499 49.2499H48.7499V47.0833C48.7499 46.5867 48.6258 46.1353 48.3775 45.7291C48.1293 45.3228 47.802 45.0069 47.3958 44.7812C44.9583 43.5624 42.4982 42.6484 40.0155 42.039C37.5329 41.4296 35.0277 41.1249 32.4999 41.1249C29.9721 41.1249 27.4669 41.4296 24.9843 42.039C22.5017 42.6484 20.0416 43.5624 17.6041 44.7812C17.1978 45.0069 16.8706 45.3228 16.6223 45.7291C16.3741 46.1353 16.2499 46.5867 16.2499 47.0833V49.2499ZM32.4999 27.5833C33.9895 27.5833 35.2647 27.0529 36.3254 25.9921C37.3862 24.9313 37.9166 23.6562 37.9166 22.1666C37.9166 20.677 37.3862 19.4018 36.3254 18.3411C35.2647 17.2803 33.9895 16.7499 32.4999 16.7499C31.0103 16.7499 29.7352 17.2803 28.6744 18.3411C27.6136 19.4018 27.0833 20.677 27.0833 22.1666C27.0833 23.6562 27.6136 24.9313 28.6744 25.9921C29.7352 27.0529 31.0103 27.5833 32.4999 27.5833Z" fill="#1D1B20"/>
</svg>