<svg xmlns="http://www.w3.org/2000/svg" width="28" height="26" viewBox="0 0 28 26" fill="none">
    <path fill-rule="evenodd" clip-rule="evenodd" d="M16 6.5C16 9.8137 13.3137 12.5 10 12.5C6.6863 12.5 4 9.8137 4 6.5C4 3.1863 6.6863 0.5 10 0.5C13.3137 0.5 16 3.1863 16 6.5ZM10 14.4999C4.47716 14.4999 0 18.9771 0 24.4999C0 25.0521 0.447716 25.4999 1 25.4999H19C19.5523 25.4999 20 25.0521 20 24.4999C20 18.9771 15.5228 14.4999 10 14.4999ZM27.0002 25.4999H22.3552C22.4496 25.1831 22.5002 24.8473 22.5002 24.4999C22.5002 20.4177 20.5434 16.7927 17.5166 14.5114C17.6769 14.5038 17.8381 14.4999 18.0002 14.4999C23.523 14.4999 28.0002 18.9771 28.0002 24.4999C28.0002 25.0521 27.5524 25.4999 27.0002 25.4999ZM18.0002 12.5C17.3967 12.5 16.8141 12.4109 16.2647 12.2452C17.6528 10.7323 18.5002 8.7151 18.5002 6.5C18.5002 4.2849 17.6528 2.2677 16.2646 0.75482C16.8141 0.58908 17.3967 0.5 18.0002 0.5C21.3138 0.5 24.0002 3.1863 24.0002 6.5C24.0002 9.8137 21.3138 12.5 18.0002 12.5Z" fill="black"/>
</svg>