<svg xmlns="http://www.w3.org/2000/svg" width="64" height="64" viewBox="0 0 64 64" fill="none">
    <path d="M38.4 40.374V39.8571M38.3986 32.3663V31.8494M38.3986 24.3926V23.8757M13.3647 9.22607H32.0028C32.1086 12.9996 35.2008 16.0261 38.9999 16.0261C42.7991 16.0261 45.8913 12.9996 45.9971 9.22607H50.6352C56.249 9.22607 60.7999 13.777 60.7999 19.3908V44.6093C60.7999 50.2231 56.2491 54.774 50.6352 54.774H45.9971C45.8913 51.0005 42.7991 47.974 38.9999 47.974C35.2008 47.974 32.1086 51.0005 32.0028 54.774H13.3647C7.75088 54.774 3.19999 50.2231 3.19999 44.6093L3.19995 19.3908C3.19995 13.777 7.75085 9.22607 13.3647 9.22607Z" stroke="black" stroke-width="2" stroke-linecap="round" stroke-linejoin="round"/>
</svg>