<svg xmlns="http://www.w3.org/2000/svg" width="28" height="29" viewBox="0 0 28 29" fill="none">
    <g clip-path="url(#clip0_330_2586)">
        <path fill-rule="evenodd" clip-rule="evenodd" d="M9 2.5C9 1.39543 8.10456 0.5 7 0.5C5.89544 0.5 5 1.39543 5 2.5V4.5H3C1.34315 4.5 0 5.84314 0 7.5V10.5H28V7.5C28 5.84314 26.6568 4.5 25 4.5H23.0002V2.5C23.0002 1.39543 22.1048 0.5 21.0002 0.5C19.8956 0.5 19.0002 1.39543 19.0002 2.5V4.5H9V2.5ZM28 13H0V25.5C0 27.1568 1.34315 28.5 3 28.5H25C26.6568 28.5 28 27.1568 28 25.5V13Z" fill="black"/>
    </g>
    <defs>
        <clipPath id="clip0_330_2586">
            <rect width="28" height="28" fill="white" transform="translate(0 0.5)"/>
        </clipPath>
    </defs>
</svg>