<svg xmlns="http://www.w3.org/2000/svg" width="64" height="64" viewBox="0 0 64 64" fill="none">
    <path d="M38.5749 26.0751C38.7555 26.597 39.325 26.8737 39.8469 26.6931C40.3688 26.5125 40.6455 25.943 40.4649 25.421L38.5749 26.0751ZM35.1999 22.4888L35.2438 21.4898C35.2292 21.4891 35.2145 21.4888 35.1999 21.4888V22.4888ZM28.7999 32.2666V33.2666V32.2666ZM35.1999 42.0443V43.0443V42.0443ZM28.7999 42.0443L28.756 43.0434C28.7706 43.044 28.7852 43.0443 28.7999 43.0443V42.0443ZM25.4249 38.4581C25.2443 37.9361 24.6748 37.6595 24.1529 37.8401C23.631 38.0207 23.3543 38.5902 23.5349 39.1121L25.4249 38.4581ZM32.9999 17.5999C32.9999 17.0476 32.5522 16.5999 31.9999 16.5999C31.4476 16.5999 30.9999 17.0476 30.9999 17.5999H32.9999ZM30.9999 22.4888C30.9999 23.0411 31.4476 23.4888 31.9999 23.4888C32.5522 23.4888 32.9999 23.0411 32.9999 22.4888H30.9999ZM32.9999 42.0443C32.9999 41.4921 32.5522 41.0443 31.9999 41.0443C31.4476 41.0443 30.9999 41.4921 30.9999 42.0443H32.9999ZM30.9999 46.9332C30.9999 47.4855 31.4476 47.9332 31.9999 47.9332C32.5522 47.9332 32.9999 47.4855 32.9999 46.9332H30.9999ZM40.4649 25.421C40.0822 24.315 39.3822 23.348 38.4522 22.6463L37.2477 24.2429C37.8574 24.7029 38.3207 25.3404 38.5749 26.0751L40.4649 25.421ZM38.4522 22.6463C37.5219 21.9445 36.4046 21.5408 35.2438 21.4898L35.156 23.4878C35.9096 23.521 36.6381 23.7831 37.2477 24.2429L38.4522 22.6463ZM35.1999 21.4888H28.7999V23.4888H35.1999V21.4888ZM28.7999 21.4888C27.2557 21.4888 25.7785 22.1138 24.6922 23.2201L26.1194 24.6213C26.8335 23.894 27.7981 23.4888 28.7999 23.4888V21.4888ZM24.6922 23.2201C23.6066 24.3258 22.9999 25.8217 22.9999 27.3777H24.9999C24.9999 26.3404 25.4046 25.3493 26.1194 24.6213L24.6922 23.2201ZM22.9999 27.3777C22.9999 28.9336 23.6066 30.4295 24.6922 31.5352L26.1194 30.1341C25.4046 29.4061 24.9999 28.4149 24.9999 27.3777H22.9999ZM24.6922 31.5352C25.7785 32.6416 27.2557 33.2666 28.7999 33.2666V31.2666C27.7981 31.2666 26.8335 30.8614 26.1194 30.1341L24.6922 31.5352ZM28.7999 33.2666H35.1999V31.2666H28.7999V33.2666ZM35.1999 33.2666C36.2017 33.2666 37.1663 33.6717 37.8804 34.3991L39.3076 32.9979C38.2213 31.8915 36.7441 31.2666 35.1999 31.2666V33.2666ZM37.8804 34.3991C38.5952 35.127 38.9999 36.1182 38.9999 37.1555H40.9999C40.9999 35.5995 40.3932 34.1036 39.3076 32.9979L37.8804 34.3991ZM38.9999 37.1555C38.9999 38.1927 38.5952 39.1839 37.8804 39.9118L39.3076 41.313C40.3932 40.2073 40.9999 38.7114 40.9999 37.1555H38.9999ZM37.8804 39.9118C37.1663 40.6392 36.2017 41.0443 35.1999 41.0443V43.0443C36.7441 43.0443 38.2213 42.4194 39.3076 41.313L37.8804 39.9118ZM35.1999 41.0443H28.7999V43.0443H35.1999V41.0443ZM28.8438 41.0453C28.0902 41.0122 27.3616 40.7501 26.7521 40.2902L25.5476 41.8868C26.4779 42.5886 27.5952 42.9923 28.756 43.0434L28.8438 41.0453ZM26.7521 40.2902C26.1424 39.8302 25.6791 39.1928 25.4249 38.4581L23.5349 39.1121C23.9176 40.2181 24.6175 41.1851 25.5476 41.8868L26.7521 40.2902ZM30.9999 17.5999V22.4888H32.9999V17.5999H30.9999ZM30.9999 42.0443V46.9332H32.9999V42.0443H30.9999ZM56.5999 31.9999C56.5999 45.5861 45.5861 56.5999 31.9999 56.5999V58.5999C46.6907 58.5999 58.5999 46.6907 58.5999 31.9999H56.5999ZM31.9999 56.5999C18.4137 56.5999 7.3999 45.5861 7.3999 31.9999H5.3999C5.3999 46.6907 17.3091 58.5999 31.9999 58.5999V56.5999ZM7.3999 31.9999C7.3999 18.4137 18.4137 7.3999 31.9999 7.3999V5.3999C17.3091 5.3999 5.3999 17.3091 5.3999 31.9999H7.3999ZM31.9999 7.3999C45.5861 7.3999 56.5999 18.4137 56.5999 31.9999H58.5999C58.5999 17.3091 46.6907 5.3999 31.9999 5.3999V7.3999Z" fill="black"/>
</svg>