<svg xmlns="http://www.w3.org/2000/svg" width="23" height="23" viewBox="0 0 23 23" fill="none">
    <g clip-path="url(#clip0_330_2686)">
        <path d="M17.6032 -0.00158691C17.275 -0.00158691 16.95 0.0640008 16.6474 0.191325C16.3467 0.317858 16.0742 0.502827 15.8456 0.735485L2.31203 14.2033C2.21155 14.3033 2.13865 14.4276 2.10044 14.5641L0.030442 21.957C-0.0495735 22.2427 0.0307692 22.5494 0.24061 22.7593C0.450452 22.9691 0.75716 23.0495 1.04293 22.9695L8.43579 20.8995C8.57228 20.8612 8.69656 20.7882 8.79655 20.6879L22.2642 7.1545L22.2665 7.15228C22.4963 6.92364 22.6788 6.65188 22.8035 6.35255C22.9287 6.05227 22.9931 5.73017 22.9931 5.40485C22.9931 5.07954 22.9287 4.75744 22.8035 4.45714C22.6788 4.15781 22.4963 3.88603 22.2665 3.65741L22.2642 3.65521L19.3625 0.737202C19.1337 0.503736 18.8605 0.318168 18.559 0.191325C18.2564 0.0640008 17.9315 -0.00158691 17.6032 -0.00158691Z" fill="black"/>
    </g>
    <defs>
        <clipPath id="clip0_330_2686">
            <rect width="23" height="23" fill="white"/>
        </clipPath>
    </defs>
</svg>